<?xml version="1.0" encoding="UTF-8"?><svg id="Layer_1" xmlns="http://www.w3.org/2000/svg" viewBox="0 0 373.1 225.51"><defs><style>.cls-1{fill:#6e292f;}.cls-1,.cls-2,.cls-3,.cls-4,.cls-5,.cls-6,.cls-7{stroke-width:0px;}.cls-1,.cls-3{opacity:.8;}.cls-2,.cls-7{fill:#cb4057;}.cls-3{fill:#6c292e;}.cls-4{fill:#d57d99;}.cls-5{fill:#3f2018;opacity:.9;}.cls-6{fill:#732f33;opacity:.15;}.cls-7{opacity:.7;}</style></defs><path class="cls-7" d="M249.36,14.15s77.48,61.97,123.73,84.51c.7.34-116.97,98.71-116.97,98.71L99.21,60.12,249.36,14.15Z"/><polygon class="cls-7" points="0 225.51 74.37 208.92 153.48 6.76 60.85 0 0 225.51"/><polygon class="cls-2" points="88.57 171.73 196.75 174.95 153.48 6.76 60.85 0 88.57 171.73"/><polygon class="cls-2" points="87.89 171.73 100.06 60.17 250.16 14.2 197.43 175.11 87.89 171.73"/><polygon class="cls-4" points="136.57 49.53 153.48 6.76 161.93 41.25 136.57 49.53"/><polygon class="cls-4" points="186.78 135.9 197.4 174.84 204.98 151.97 186.78 135.9"/><polygon class="cls-5" points="99.05 60.35 124.07 82.15 136.54 49.52 99.05 60.35"/><polygon class="cls-3" points="99.05 60.35 124.02 82.12 88.4 171.4 99.05 60.35"/><polygon class="cls-1" points="136.54 49.52 162.04 41.25 186.99 136.25 124.08 82.15 136.54 49.52"/><polygon class="cls-6" points="162.04 41.25 186.61 135.9 204.96 151.94 250.16 14.2 162.04 41.25"/></svg>